# xmcd
#
# Track frame offsets: 
#        150
#        31313
#        69619
#        80169
#        101177
#        141326
#        181543
#        234166
#
# Disc length: 3372 seconds
#
# Revision: 2
# Processed by: cddbd v1.5.2PL0 Copyright (c) Steve Scherf et al.
# Submitted via: ExactAudioCopy v1.3
#
DISCID=660d2a08
DTITLE=Adams, Douglas - Per Anhalter durch die Galaxis HS1
DYEAR=2005
DGENRE=Hörspiel
TTITLE0=Die Erde hat uns wieder 1
TTITLE1=Die Erde hat uns wieder 2
TTITLE2=Die Erde hat uns wieder 3
TTITLE3=Die Erde hat uns wieder 4
TTITLE4=Die Erde hat uns wieder 5
TTITLE5=Die Erde hat uns wieder 6
TTITLE6=Die Erde hat uns wieder 7
TTITLE7=Die Erde hat uns wieder 8
EXTD=Hörspiel von BR2, SWR2 und WDR
EXTT0=
EXTT1=
EXTT2=
EXTT3=
EXTT4=
EXTT5=
EXTT6=
EXTT7=
PLAYORDER=
